<svg xmlns="http://www.w3.org/2000/svg" xmlns:xlink="http://www.w3.org/1999/xlink" version="1.1" id="Layer_1" x="0px" y="0px" viewBox="0 0 765.8 73.8" style="enable-background:new 0 0 765.8 73.8;" xml:space="preserve">
<style type="text/css">
	.st0{fill:#0459b4;}
</style>
<path class="st0" d="M741.8,30.4c7.4,0,8.8-3.2,8.8-9.2c0-6-0.9-9.2-8.8-9.2h-9.7v18.4H741.8z M763,48.4v15.2c0,3.7,0.9,6.9,2.8,8.8  h-14.3c-1.4-1.8-2.3-5.1-2.3-8.8V48.4c0-5.5-2.3-7.4-7.4-7.4h-9.7v31.4h-13.8v-71h25.4c18.4,0,20.7,10.1,20.7,19.8  c0,7.8-4.1,13.4-14.3,15.2C758.9,36.9,763,41.5,763,48.4z M705.9,1.4V12h-27.7v18h24.9v10.1h-24.9v21.7h27.7v10.6h-41.5v-71H705.9z   M655.6,1.4V12h-17.5v60.4h-13.8V12h-17.5V1.4H655.6z M599.8,18v4.1H586v-3.7c0-6-0.9-8.3-7.8-8.3c-6.5,0-7.8,2.8-7.8,7.4  c0,4.1,0.9,6,4.6,8.3l13.4,8.8c7.4,4.6,11.5,7.4,11.5,20.3c0,12.4-8.3,18.4-21.7,18.4c-16.1,0-22.6-5.5-22.6-18.4v-6h13.8v5.1  c0,7.4,2.3,9.2,8.8,9.2c6.5,0,7.8-2.8,7.8-7.8c0-5.1-0.9-6.9-5.5-10.1l-13.4-8.8C558.8,30.9,556,28.1,556,18  c0-8.8,5.1-17.5,21.7-17.5C594.8,0,599.8,7.4,599.8,18 M543.1,1.4v70.5h-17.1L507.6,18v53.9h-13.8V1.4h17.1l18.4,53.5V1.4H543.1z   M466.1,19.8c0-7.4-2.8-9.7-9.7-9.7c-7.4,0-9.7,2.3-9.7,9.7v34.1c0,7.4,2.8,9.2,9.7,9.2c7.4,0,9.7-2.3,9.7-9.2V19.8z M480,23.1v27.2  c0,17.1-8.3,23.1-23.5,23.1s-23.5-5.5-23.5-23.1V23.1C432.9,6,441.2,0,456.4,0S480,6,480,23.1z M419.6,1.4v70.5h-13.8V18l-12,54.4  h-11.1l-11.5-54.9v54.9h-13.8v-71h19.4l11.5,53.9l11.5-53.9H419.6z M322.3,1.4V12h-27.7v18h24.9v10.1h-24.9v21.7h27.7v10.6h-41.5  v-71H322.3z M244.8,61.8H272v10.6h-41v-71h13.8V61.8z M222.2,1.4V12h-17.5v60.4h-13.8V12h-17.5V1.4H222.2z M164.6,1.4v70.5h-17.1  L129.1,18v53.9h-13.8V1.4h17.1l18.4,53.5V1.4H164.6z M102.4,1.4V12H74.7v18h24.9v10.1H74.7v21.7h27.7v10.6H60.9v-71H102.4z   M33.7,24.4v-5.5c0-6-2.8-8.8-9.7-8.8c-7.4,0-10.1,2.8-10.1,8.8v35.5c0,6,2.3,8.8,9.7,8.8c6.9,0,10.1-4.6,10.1-11.5v-8.3H22.1V33.2  h25.4v39.2h-12v-5.5c-2.3,3.2-6.5,6.9-16.1,6.9C6.9,73.8,0,68.7,0,52.1v-30C0,6,9.7,0,24,0c13.8,0,23.5,6.5,23.5,18.9v5.5H33.7z" fill="#000000"/>
</svg>